<svg xmlns="http://www.w3.org/2000/svg" xmlns:xlink="http://www.w3.org/1999/xlink" width="500" zoomAndPan="magnify" viewBox="0 0 375 225" height="300" preserveAspectRatio="xMidYMid meet" version="1.0"><defs><g/><clipPath id="b61d2c3ecc"><path d="M 8 73 L 91 73 L 91 145 L 8 145 Z M 8 73 " clip-rule="nonzero"/></clipPath><clipPath id="a9a4f7c91e"><path d="M 69.429688 38.5625 L 110.984375 108.089844 L 49.828125 144.644531 L 8.269531 75.117188 Z M 69.429688 38.5625 " clip-rule="nonzero"/></clipPath><clipPath id="a84de6b7ed"><path d="M 69.429688 38.5625 L 110.984375 108.089844 L 49.828125 144.644531 L 8.269531 75.117188 Z M 69.429688 38.5625 " clip-rule="nonzero"/></clipPath><clipPath id="a0d8a772e5"><rect x="0" width="28" y="0" height="24"/></clipPath></defs><g clip-path="url(#b61d2c3ecc)"><g clip-path="url(#a9a4f7c91e)"><g clip-path="url(#a84de6b7ed)"><path fill="#fb4d01" d="M 48.535156 98.726562 L 50.070312 144.316406 L 62.78125 121.792969 Z M 8.597656 74.933594 L 76.484375 97.515625 L 90.167969 73.261719 L 49.382812 74.101562 Z M 8.597656 74.933594 " fill-opacity="1" fill-rule="evenodd"/></g></g></g><g fill="#000000" fill-opacity="1"><g transform="translate(92.420269, 117.719098)"><g><path d="M 26.84375 -46.21875 L 45.5 0 L 34.171875 0 L 30.765625 -9.25 L 13.171875 -9.25 L 9.75 0 L -1.5625 0 L 17.09375 -46.21875 Z M 27.171875 -18.484375 L 22.015625 -31.9375 L 21.90625 -31.9375 L 16.75 -18.484375 Z M 27.171875 -18.484375 "/></g></g></g><g fill="#000000" fill-opacity="1"><g transform="translate(134.599676, 117.719098)"><g><path d="M 5.046875 -28.75 L 5.046875 -39.453125 L 14.953125 -39.453125 L 14.953125 -28.75 L 21.015625 -28.75 L 21.015625 -21.1875 L 14.953125 -21.1875 L 14.953125 -12.046875 C 14.953125 -9.390625 15.703125 -8.0625 17.203125 -8.0625 C 17.578125 -8.0625 17.96875 -8.132812 18.375 -8.28125 C 18.789062 -8.4375 19.109375 -8.585938 19.328125 -8.734375 L 19.671875 -8.96875 L 22.125 -0.953125 C 20 0.242188 17.570312 0.84375 14.84375 0.84375 C 12.976562 0.84375 11.375 0.515625 10.03125 -0.140625 C 8.6875 -0.796875 7.664062 -1.671875 6.96875 -2.765625 C 6.28125 -3.867188 5.785156 -5.023438 5.484375 -6.234375 C 5.191406 -7.453125 5.046875 -8.753906 5.046875 -10.140625 L 5.046875 -21.1875 L 0.890625 -21.1875 L 0.890625 -28.75 Z M 5.046875 -28.75 "/></g></g></g><g fill="#000000" fill-opacity="1"><g transform="translate(154.989008, 117.719098)"><g><path d="M 3.359375 0 L 3.359375 -48.1875 L 13.28125 -48.1875 L 13.28125 0 Z M 3.359375 0 "/></g></g></g><g fill="#000000" fill-opacity="1"><g transform="translate(169.888803, 117.719098)"><g><path d="M 5.3125 -3.546875 C 2.625 -6.484375 1.28125 -10.082031 1.28125 -14.34375 C 1.28125 -18.601562 2.625 -22.207031 5.3125 -25.15625 C 8.007812 -28.101562 11.429688 -29.578125 15.578125 -29.578125 C 19.390625 -29.578125 22.523438 -28.382812 24.984375 -26 L 24.984375 -28.75 L 34.90625 -28.75 L 34.90625 0 L 25.109375 0 L 25.109375 -3.25 L 24.984375 -3.25 C 22.523438 -0.519531 19.390625 0.84375 15.578125 0.84375 C 11.429688 0.84375 8.007812 -0.617188 5.3125 -3.546875 Z M 13.75 -19.21875 C 12.46875 -17.945312 11.828125 -16.320312 11.828125 -14.34375 C 11.828125 -12.363281 12.441406 -10.75 13.671875 -9.5 C 14.898438 -8.25 16.523438 -7.625 18.546875 -7.625 C 20.484375 -7.625 22.078125 -8.257812 23.328125 -9.53125 C 24.585938 -10.800781 25.21875 -12.40625 25.21875 -14.34375 C 25.21875 -16.320312 24.570312 -17.945312 23.28125 -19.21875 C 21.988281 -20.488281 20.410156 -21.125 18.546875 -21.125 C 16.640625 -21.125 15.039062 -20.488281 13.75 -19.21875 Z M 13.75 -19.21875 "/></g></g></g><g fill="#000000" fill-opacity="1"><g transform="translate(206.410628, 117.719098)"><g><path d="M 15.859375 -29.578125 C 17.503906 -29.578125 19.128906 -29.390625 20.734375 -29.015625 C 22.335938 -28.648438 23.53125 -28.28125 24.3125 -27.90625 L 25.5 -27.34375 L 22.25 -20.84375 C 20 -22.039062 17.867188 -22.640625 15.859375 -22.640625 C 14.734375 -22.640625 13.9375 -22.515625 13.46875 -22.265625 C 13.007812 -22.023438 12.78125 -21.570312 12.78125 -20.90625 C 12.78125 -20.75 12.796875 -20.597656 12.828125 -20.453125 C 12.867188 -20.304688 12.941406 -20.164062 13.046875 -20.03125 C 13.160156 -19.894531 13.265625 -19.78125 13.359375 -19.6875 C 13.453125 -19.601562 13.609375 -19.503906 13.828125 -19.390625 C 14.054688 -19.273438 14.234375 -19.1875 14.359375 -19.125 C 14.492188 -19.070312 14.710938 -18.988281 15.015625 -18.875 C 15.316406 -18.769531 15.539062 -18.6875 15.6875 -18.625 C 15.832031 -18.570312 16.082031 -18.488281 16.4375 -18.375 C 16.800781 -18.257812 17.070312 -18.1875 17.25 -18.15625 C 18.414062 -17.820312 19.425781 -17.445312 20.28125 -17.03125 C 21.144531 -16.625 22.050781 -16.0625 23 -15.34375 C 23.945312 -14.632812 24.679688 -13.738281 25.203125 -12.65625 C 25.734375 -11.570312 26 -10.34375 26 -8.96875 C 26 -2.425781 21.460938 0.84375 12.390625 0.84375 C 10.328125 0.84375 8.367188 0.523438 6.515625 -0.109375 C 4.671875 -0.742188 3.335938 -1.378906 2.515625 -2.015625 L 1.28125 -3.03125 L 5.328125 -9.8125 C 5.617188 -9.539062 6.007812 -9.226562 6.5 -8.875 C 6.988281 -8.519531 7.863281 -8.035156 9.125 -7.421875 C 10.394531 -6.804688 11.5 -6.5 12.4375 -6.5 C 14.488281 -6.5 15.515625 -7.191406 15.515625 -8.578125 C 15.515625 -9.210938 15.253906 -9.707031 14.734375 -10.0625 C 14.210938 -10.414062 13.328125 -10.816406 12.078125 -11.265625 C 10.828125 -11.710938 9.847656 -12.125 9.140625 -12.5 C 7.335938 -13.425781 5.914062 -14.476562 4.875 -15.65625 C 3.832031 -16.832031 3.3125 -18.394531 3.3125 -20.34375 C 3.3125 -23.25 4.4375 -25.515625 6.6875 -27.140625 C 8.945312 -28.765625 12.003906 -29.578125 15.859375 -29.578125 Z M 15.859375 -29.578125 "/></g></g></g><g fill="#fb4d01" fill-opacity="1"><g transform="translate(232.236673, 117.719098)"><g><path d="M 13.890625 -18.546875 L 13.890625 0 L 3.359375 0 L 3.359375 -46.21875 L 13.890625 -46.21875 L 13.890625 -27.796875 L 28.796875 -27.796875 L 28.796875 -46.21875 L 39.328125 -46.21875 L 39.328125 0 L 28.796875 0 L 28.796875 -18.546875 Z M 13.890625 -18.546875 "/></g></g></g><g fill="#fb4d01" fill-opacity="1"><g transform="translate(273.183735, 117.719098)"><g><path d="M 27.953125 -9.53125 C 29.566406 -9.53125 31.128906 -9.769531 32.640625 -10.25 C 34.148438 -10.738281 35.257812 -11.207031 35.96875 -11.65625 L 37.03125 -12.390625 L 41.515625 -3.421875 C 41.367188 -3.304688 41.164062 -3.15625 40.90625 -2.96875 C 40.644531 -2.78125 40.035156 -2.429688 39.078125 -1.921875 C 38.128906 -1.421875 37.113281 -0.984375 36.03125 -0.609375 C 34.945312 -0.242188 33.523438 0.0859375 31.765625 0.390625 C 30.015625 0.691406 28.203125 0.84375 26.328125 0.84375 C 22.035156 0.84375 17.960938 -0.207031 14.109375 -2.3125 C 10.265625 -4.425781 7.164062 -7.332031 4.8125 -11.03125 C 2.457031 -14.726562 1.28125 -18.726562 1.28125 -23.03125 C 1.28125 -26.28125 1.972656 -29.398438 3.359375 -32.390625 C 4.742188 -35.378906 6.582031 -37.9375 8.875 -40.0625 C 11.175781 -42.1875 13.859375 -43.882812 16.921875 -45.15625 C 19.984375 -46.425781 23.117188 -47.0625 26.328125 -47.0625 C 29.316406 -47.0625 32.070312 -46.707031 34.59375 -46 C 37.113281 -45.289062 38.898438 -44.582031 39.953125 -43.875 L 41.515625 -42.8125 L 37.03125 -33.84375 C 36.769531 -34.0625 36.378906 -34.328125 35.859375 -34.640625 C 35.335938 -34.960938 34.289062 -35.382812 32.71875 -35.90625 C 31.15625 -36.4375 29.566406 -36.703125 27.953125 -36.703125 C 25.421875 -36.703125 23.144531 -36.289062 21.125 -35.46875 C 19.101562 -34.644531 17.503906 -33.5625 16.328125 -32.21875 C 15.148438 -30.875 14.253906 -29.425781 13.640625 -27.875 C 13.023438 -26.320312 12.71875 -24.742188 12.71875 -23.140625 C 12.71875 -19.628906 14.035156 -16.484375 16.671875 -13.703125 C 19.304688 -10.921875 23.066406 -9.53125 27.953125 -9.53125 Z M 27.953125 -9.53125 "/></g></g></g><g transform="matrix(1, 0, 0, 1, 314, 100)"><g clip-path="url(#a0d8a772e5)"><g fill="#929292" fill-opacity="1"><g transform="translate(0.79931, 17.060049)"><g><path d="M 3.1875 -3.921875 C 3.769531 -3.921875 4.265625 -3.710938 4.671875 -3.296875 C 5.078125 -2.890625 5.28125 -2.394531 5.28125 -1.8125 C 5.28125 -1.238281 5.078125 -0.742188 4.671875 -0.328125 C 4.265625 0.078125 3.769531 0.28125 3.1875 0.28125 C 2.613281 0.28125 2.117188 0.078125 1.703125 -0.328125 C 1.296875 -0.742188 1.09375 -1.238281 1.09375 -1.8125 C 1.09375 -2.394531 1.296875 -2.890625 1.703125 -3.296875 C 2.117188 -3.710938 2.613281 -3.921875 3.1875 -3.921875 Z M 3.1875 -3.921875 "/></g></g></g><g fill="#929292" fill-opacity="1"><g transform="translate(6.616971, 17.060049)"><g><path d="M 6.09375 -7 C 5.476562 -7 4.953125 -6.773438 4.515625 -6.328125 C 4.078125 -5.878906 3.859375 -5.335938 3.859375 -4.703125 C 3.859375 -4.054688 4.078125 -3.503906 4.515625 -3.046875 C 4.953125 -2.597656 5.476562 -2.375 6.09375 -2.375 C 6.382812 -2.375 6.660156 -2.410156 6.921875 -2.484375 C 7.179688 -2.554688 7.375 -2.628906 7.5 -2.703125 L 7.671875 -2.8125 L 8.765625 -0.5625 C 8.679688 -0.5 8.5625 -0.421875 8.40625 -0.328125 C 8.25 -0.242188 7.898438 -0.125 7.359375 0.03125 C 6.816406 0.195312 6.234375 0.28125 5.609375 0.28125 C 4.234375 0.28125 3.023438 -0.203125 1.984375 -1.171875 C 0.941406 -2.148438 0.421875 -3.316406 0.421875 -4.671875 C 0.421875 -6.035156 0.941406 -7.207031 1.984375 -8.1875 C 3.023438 -9.164062 4.234375 -9.65625 5.609375 -9.65625 C 6.234375 -9.65625 6.804688 -9.582031 7.328125 -9.4375 C 7.859375 -9.289062 8.234375 -9.144531 8.453125 -9 L 8.765625 -8.78125 L 7.671875 -6.5625 C 7.265625 -6.851562 6.738281 -7 6.09375 -7 Z M 6.09375 -7 "/></g></g></g><g fill="#929292" fill-opacity="1"><g transform="translate(15.032504, 17.060049)"><g><path d="M 1.734375 -1.15625 C 0.859375 -2.113281 0.421875 -3.285156 0.421875 -4.671875 C 0.421875 -6.066406 0.859375 -7.242188 1.734375 -8.203125 C 2.617188 -9.171875 3.738281 -9.65625 5.09375 -9.65625 C 6.332031 -9.65625 7.351562 -9.265625 8.15625 -8.484375 L 8.15625 -9.390625 L 11.40625 -9.390625 L 11.40625 0 L 8.203125 0 L 8.203125 -1.0625 L 8.15625 -1.0625 C 7.351562 -0.164062 6.332031 0.28125 5.09375 0.28125 C 3.738281 0.28125 2.617188 -0.195312 1.734375 -1.15625 Z M 4.484375 -6.265625 C 4.066406 -5.859375 3.859375 -5.332031 3.859375 -4.6875 C 3.859375 -4.039062 4.054688 -3.507812 4.453125 -3.09375 C 4.859375 -2.6875 5.394531 -2.484375 6.0625 -2.484375 C 6.6875 -2.484375 7.203125 -2.691406 7.609375 -3.109375 C 8.023438 -3.523438 8.234375 -4.050781 8.234375 -4.6875 C 8.234375 -5.332031 8.019531 -5.859375 7.59375 -6.265625 C 7.175781 -6.679688 6.664062 -6.890625 6.0625 -6.890625 C 5.4375 -6.890625 4.910156 -6.679688 4.484375 -6.265625 Z M 4.484375 -6.265625 "/></g></g></g></g></g><g fill="#000000" fill-opacity="1"><g transform="translate(89.486665, 139.563431)"><g><path d="M 7.125 0 L 5.359375 0 L 5.359375 -3.515625 L 2.734375 -3.515625 L 2.734375 0 L 0.984375 0 L 0.984375 -8.78125 L 2.734375 -8.78125 L 2.734375 -5.265625 L 5.359375 -5.265625 L 5.359375 -8.78125 L 7.125 -8.78125 Z M 7.125 0 "/></g></g></g><g fill="#000000" fill-opacity="1"><g transform="translate(105.344331, 139.563431)"><g><path d="M 5.53125 0 L 0.984375 0 L 0.984375 -8.78125 L 5.375 -8.78125 L 5.375 -7.03125 L 2.734375 -7.03125 L 2.734375 -5.265625 L 5.046875 -5.265625 L 5.046875 -3.515625 L 2.734375 -3.515625 L 2.734375 -1.75 L 5.53125 -1.75 Z M 5.53125 0 "/></g></g></g><g fill="#000000" fill-opacity="1"><g transform="translate(119.27568, 139.563431)"><g><path d="M 0.203125 0 L 3.890625 -9.09375 L 4.078125 -9.09375 L 7.78125 0 L 5.796875 0 L 5.4375 -0.953125 L 2.53125 -0.953125 L 2.1875 0 Z M 3.171875 -2.59375 L 4.796875 -2.59375 L 3.984375 -4.875 Z M 3.171875 -2.59375 "/></g></g></g><g fill="#000000" fill-opacity="1"><g transform="translate(135.03519, 139.563431)"><g><path d="M 4.1875 0 L 2.4375 0 L 2.4375 -7.03125 L 0.25 -7.03125 L 0.25 -8.765625 L 6.375 -8.765625 L 6.375 -7.03125 L 4.1875 -7.03125 Z M 4.1875 0 "/></g></g></g><g fill="#000000" fill-opacity="1"><g transform="translate(149.494124, 139.563431)"><g><path d="M 2.734375 0 L 0.984375 0 L 0.984375 -8.78125 L 2.734375 -8.78125 Z M 2.734375 0 "/></g></g></g><g fill="#000000" fill-opacity="1"><g transform="translate(160.971575, 139.563431)"><g><path d="M 2.734375 -4.78125 L 2.734375 0 L 0.984375 0 L 0.984375 -8.96875 L 1.453125 -8.96875 L 5.875 -3.8125 L 5.875 -8.765625 L 7.65625 -8.765625 L 7.65625 0.1875 L 7.1875 0.1875 Z M 2.734375 -4.78125 "/></g></g></g><g fill="#000000" fill-opacity="1"><g transform="translate(177.356824, 139.563431)"><g><path d="M 7.3125 -0.546875 C 6.976562 -0.359375 6.617188 -0.210938 6.234375 -0.109375 C 5.859375 -0.00390625 5.460938 0.046875 5.046875 0.046875 C 4.328125 0.046875 3.691406 -0.0703125 3.140625 -0.3125 C 2.585938 -0.5625 2.117188 -0.890625 1.734375 -1.296875 C 1.359375 -1.710938 1.078125 -2.179688 0.890625 -2.703125 C 0.703125 -3.222656 0.601562 -3.757812 0.59375 -4.3125 C 0.582031 -4.875 0.664062 -5.414062 0.84375 -5.9375 C 1.019531 -6.46875 1.289062 -6.945312 1.65625 -7.375 C 2.019531 -7.800781 2.484375 -8.144531 3.046875 -8.40625 C 3.617188 -8.675781 4.285156 -8.828125 5.046875 -8.859375 C 5.398438 -8.867188 5.722656 -8.847656 6.015625 -8.796875 C 6.304688 -8.753906 6.546875 -8.703125 6.734375 -8.640625 C 6.929688 -8.585938 7.050781 -8.550781 7.09375 -8.53125 L 6.890625 -6.75 C 6.710938 -6.820312 6.476562 -6.894531 6.1875 -6.96875 C 5.894531 -7.050781 5.515625 -7.085938 5.046875 -7.078125 C 4.535156 -7.054688 4.101562 -6.941406 3.75 -6.734375 C 3.394531 -6.535156 3.113281 -6.273438 2.90625 -5.953125 C 2.695312 -5.640625 2.554688 -5.289062 2.484375 -4.90625 C 2.421875 -4.53125 2.425781 -4.15625 2.5 -3.78125 C 2.570312 -3.40625 2.71875 -3.054688 2.9375 -2.734375 C 3.15625 -2.421875 3.441406 -2.171875 3.796875 -1.984375 C 4.148438 -1.796875 4.566406 -1.703125 5.046875 -1.703125 C 5.128906 -1.703125 5.210938 -1.707031 5.296875 -1.71875 C 5.378906 -1.738281 5.457031 -1.75 5.53125 -1.75 L 5.53125 -4.390625 L 7.3125 -4.390625 Z M 7.3125 -0.546875 "/></g></g></g><g fill="#fb4d01" fill-opacity="1"><g transform="translate(193.373379, 139.563431)"><g><path d="M 0.203125 0 L 3.890625 -9.09375 L 4.078125 -9.09375 L 7.78125 0 L 5.796875 0 L 5.4375 -0.953125 L 2.53125 -0.953125 L 2.1875 0 Z M 3.171875 -2.59375 L 4.796875 -2.59375 L 3.984375 -4.875 Z M 3.171875 -2.59375 "/></g></g></g><g fill="#fb4d01" fill-opacity="1"><g transform="translate(209.132889, 139.563431)"><g><path d="M 2.734375 -4.78125 L 2.734375 0 L 0.984375 0 L 0.984375 -8.96875 L 1.453125 -8.96875 L 5.875 -3.8125 L 5.875 -8.765625 L 7.65625 -8.765625 L 7.65625 0.1875 L 7.1875 0.1875 Z M 2.734375 -4.78125 "/></g></g></g><g fill="#fb4d01" fill-opacity="1"><g transform="translate(225.518138, 139.563431)"><g><path d="M 3.59375 -8.78125 C 4.320312 -8.78125 4.960938 -8.65625 5.515625 -8.40625 C 6.066406 -8.164062 6.523438 -7.835938 6.890625 -7.421875 C 7.253906 -7.003906 7.523438 -6.53125 7.703125 -6 C 7.890625 -5.476562 7.984375 -4.941406 7.984375 -4.390625 C 7.984375 -3.835938 7.890625 -3.296875 7.703125 -2.765625 C 7.523438 -2.242188 7.253906 -1.773438 6.890625 -1.359375 C 6.523438 -0.941406 6.066406 -0.609375 5.515625 -0.359375 C 4.960938 -0.117188 4.320312 0 3.59375 0 L 0.984375 0 L 0.984375 -8.78125 Z M 3.59375 -7.03125 L 2.734375 -7.03125 L 2.734375 -1.75 L 3.59375 -1.75 C 4.082031 -1.75 4.5 -1.84375 4.84375 -2.03125 C 5.195312 -2.226562 5.476562 -2.484375 5.6875 -2.796875 C 5.894531 -3.109375 6.035156 -3.453125 6.109375 -3.828125 C 6.179688 -4.203125 6.179688 -4.578125 6.109375 -4.953125 C 6.035156 -5.328125 5.894531 -5.671875 5.6875 -5.984375 C 5.476562 -6.296875 5.195312 -6.546875 4.84375 -6.734375 C 4.5 -6.929688 4.082031 -7.03125 3.59375 -7.03125 Z M 3.59375 -7.03125 "/></g></g></g><g fill="#000000" fill-opacity="1"><g transform="translate(241.91244, 139.563431)"><g><path d="M 6.578125 -6.75 C 6.410156 -6.832031 6.207031 -6.914062 5.96875 -7 C 5.738281 -7.082031 5.429688 -7.125 5.046875 -7.125 C 4.546875 -7.125 4.117188 -7.023438 3.765625 -6.828125 C 3.421875 -6.640625 3.140625 -6.382812 2.921875 -6.0625 C 2.710938 -5.75 2.566406 -5.398438 2.484375 -5.015625 C 2.410156 -4.640625 2.410156 -4.257812 2.484375 -3.875 C 2.566406 -3.488281 2.710938 -3.132812 2.921875 -2.8125 C 3.140625 -2.5 3.421875 -2.242188 3.765625 -2.046875 C 4.117188 -1.859375 4.546875 -1.765625 5.046875 -1.765625 C 5.429688 -1.765625 5.769531 -1.804688 6.0625 -1.890625 C 6.351562 -1.984375 6.582031 -2.070312 6.75 -2.15625 L 6.96875 -0.34375 C 6.707031 -0.238281 6.398438 -0.148438 6.046875 -0.078125 C 5.691406 -0.00390625 5.359375 0.03125 5.046875 0.03125 C 4.304688 0.03125 3.65625 -0.09375 3.09375 -0.34375 C 2.539062 -0.59375 2.078125 -0.929688 1.703125 -1.359375 C 1.328125 -1.785156 1.046875 -2.265625 0.859375 -2.796875 C 0.679688 -3.328125 0.59375 -3.875 0.59375 -4.4375 C 0.59375 -5 0.679688 -5.539062 0.859375 -6.0625 C 1.046875 -6.59375 1.328125 -7.070312 1.703125 -7.5 C 2.078125 -7.925781 2.539062 -8.265625 3.09375 -8.515625 C 3.65625 -8.765625 4.304688 -8.890625 5.046875 -8.890625 C 5.679688 -8.890625 6.257812 -8.773438 6.78125 -8.546875 Z M 6.578125 -6.75 "/></g></g></g><g fill="#000000" fill-opacity="1"><g transform="translate(257.046198, 139.563431)"><g><path d="M 5.203125 0.125 C 4.453125 0.125 3.789062 0 3.21875 -0.25 C 2.65625 -0.507812 2.179688 -0.851562 1.796875 -1.28125 C 1.421875 -1.707031 1.140625 -2.191406 0.953125 -2.734375 C 0.765625 -3.273438 0.671875 -3.828125 0.671875 -4.390625 C 0.671875 -4.960938 0.765625 -5.519531 0.953125 -6.0625 C 1.140625 -6.601562 1.421875 -7.085938 1.796875 -7.515625 C 2.179688 -7.953125 2.65625 -8.296875 3.21875 -8.546875 C 3.789062 -8.796875 4.453125 -8.921875 5.203125 -8.921875 C 5.960938 -8.921875 6.625 -8.796875 7.1875 -8.546875 C 7.757812 -8.296875 8.234375 -7.953125 8.609375 -7.515625 C 8.984375 -7.085938 9.265625 -6.601562 9.453125 -6.0625 C 9.640625 -5.519531 9.734375 -4.960938 9.734375 -4.390625 C 9.734375 -3.828125 9.640625 -3.273438 9.453125 -2.734375 C 9.265625 -2.191406 8.984375 -1.707031 8.609375 -1.28125 C 8.234375 -0.851562 7.757812 -0.507812 7.1875 -0.25 C 6.625 0 5.960938 0.125 5.203125 0.125 Z M 5.203125 -1.6875 C 5.703125 -1.6875 6.128906 -1.785156 6.484375 -1.984375 C 6.847656 -2.179688 7.132812 -2.441406 7.34375 -2.765625 C 7.5625 -3.085938 7.707031 -3.441406 7.78125 -3.828125 C 7.851562 -4.210938 7.851562 -4.597656 7.78125 -4.984375 C 7.707031 -5.367188 7.5625 -5.722656 7.34375 -6.046875 C 7.132812 -6.367188 6.847656 -6.628906 6.484375 -6.828125 C 6.128906 -7.023438 5.703125 -7.125 5.203125 -7.125 C 4.703125 -7.125 4.269531 -7.023438 3.90625 -6.828125 C 3.550781 -6.628906 3.265625 -6.367188 3.046875 -6.046875 C 2.835938 -5.722656 2.695312 -5.367188 2.625 -4.984375 C 2.550781 -4.597656 2.550781 -4.210938 2.625 -3.828125 C 2.695312 -3.441406 2.835938 -3.085938 3.046875 -2.765625 C 3.265625 -2.441406 3.550781 -2.179688 3.90625 -1.984375 C 4.269531 -1.785156 4.703125 -1.6875 5.203125 -1.6875 Z M 5.203125 -1.6875 "/></g></g></g><g fill="#000000" fill-opacity="1"><g transform="translate(275.185987, 139.563431)"><g><path d="M 5.203125 0.125 C 4.453125 0.125 3.789062 0 3.21875 -0.25 C 2.65625 -0.507812 2.179688 -0.851562 1.796875 -1.28125 C 1.421875 -1.707031 1.140625 -2.191406 0.953125 -2.734375 C 0.765625 -3.273438 0.671875 -3.828125 0.671875 -4.390625 C 0.671875 -4.960938 0.765625 -5.519531 0.953125 -6.0625 C 1.140625 -6.601562 1.421875 -7.085938 1.796875 -7.515625 C 2.179688 -7.953125 2.65625 -8.296875 3.21875 -8.546875 C 3.789062 -8.796875 4.453125 -8.921875 5.203125 -8.921875 C 5.960938 -8.921875 6.625 -8.796875 7.1875 -8.546875 C 7.757812 -8.296875 8.234375 -7.953125 8.609375 -7.515625 C 8.984375 -7.085938 9.265625 -6.601562 9.453125 -6.0625 C 9.640625 -5.519531 9.734375 -4.960938 9.734375 -4.390625 C 9.734375 -3.828125 9.640625 -3.273438 9.453125 -2.734375 C 9.265625 -2.191406 8.984375 -1.707031 8.609375 -1.28125 C 8.234375 -0.851562 7.757812 -0.507812 7.1875 -0.25 C 6.625 0 5.960938 0.125 5.203125 0.125 Z M 5.203125 -1.6875 C 5.703125 -1.6875 6.128906 -1.785156 6.484375 -1.984375 C 6.847656 -2.179688 7.132812 -2.441406 7.34375 -2.765625 C 7.5625 -3.085938 7.707031 -3.441406 7.78125 -3.828125 C 7.851562 -4.210938 7.851562 -4.597656 7.78125 -4.984375 C 7.707031 -5.367188 7.5625 -5.722656 7.34375 -6.046875 C 7.132812 -6.367188 6.847656 -6.628906 6.484375 -6.828125 C 6.128906 -7.023438 5.703125 -7.125 5.203125 -7.125 C 4.703125 -7.125 4.269531 -7.023438 3.90625 -6.828125 C 3.550781 -6.628906 3.265625 -6.367188 3.046875 -6.046875 C 2.835938 -5.722656 2.695312 -5.367188 2.625 -4.984375 C 2.550781 -4.597656 2.550781 -4.210938 2.625 -3.828125 C 2.695312 -3.441406 2.835938 -3.085938 3.046875 -2.765625 C 3.265625 -2.441406 3.550781 -2.179688 3.90625 -1.984375 C 4.269531 -1.785156 4.703125 -1.6875 5.203125 -1.6875 Z M 5.203125 -1.6875 "/></g></g></g><g fill="#000000" fill-opacity="1"><g transform="translate(293.325775, 139.563431)"><g><path d="M 0.984375 -8.78125 L 2.734375 -8.78125 L 2.734375 -1.75 L 5.53125 -1.75 L 5.53125 0 L 0.984375 0 Z M 0.984375 -8.78125 "/></g></g></g><g fill="#000000" fill-opacity="1"><g transform="translate(307.122165, 139.563431)"><g><path d="M 2.734375 0 L 0.984375 0 L 0.984375 -8.78125 L 2.734375 -8.78125 Z M 2.734375 0 "/></g></g></g><g fill="#000000" fill-opacity="1"><g transform="translate(318.599616, 139.563431)"><g><path d="M 2.734375 -4.78125 L 2.734375 0 L 0.984375 0 L 0.984375 -8.96875 L 1.453125 -8.96875 L 5.875 -3.8125 L 5.875 -8.765625 L 7.65625 -8.765625 L 7.65625 0.1875 L 7.1875 0.1875 Z M 2.734375 -4.78125 "/></g></g></g><g fill="#000000" fill-opacity="1"><g transform="translate(334.984865, 139.563431)"><g><path d="M 7.3125 -0.546875 C 6.976562 -0.359375 6.617188 -0.210938 6.234375 -0.109375 C 5.859375 -0.00390625 5.460938 0.046875 5.046875 0.046875 C 4.328125 0.046875 3.691406 -0.0703125 3.140625 -0.3125 C 2.585938 -0.5625 2.117188 -0.890625 1.734375 -1.296875 C 1.359375 -1.710938 1.078125 -2.179688 0.890625 -2.703125 C 0.703125 -3.222656 0.601562 -3.757812 0.59375 -4.3125 C 0.582031 -4.875 0.664062 -5.414062 0.84375 -5.9375 C 1.019531 -6.46875 1.289062 -6.945312 1.65625 -7.375 C 2.019531 -7.800781 2.484375 -8.144531 3.046875 -8.40625 C 3.617188 -8.675781 4.285156 -8.828125 5.046875 -8.859375 C 5.398438 -8.867188 5.722656 -8.847656 6.015625 -8.796875 C 6.304688 -8.753906 6.546875 -8.703125 6.734375 -8.640625 C 6.929688 -8.585938 7.050781 -8.550781 7.09375 -8.53125 L 6.890625 -6.75 C 6.710938 -6.820312 6.476562 -6.894531 6.1875 -6.96875 C 5.894531 -7.050781 5.515625 -7.085938 5.046875 -7.078125 C 4.535156 -7.054688 4.101562 -6.941406 3.75 -6.734375 C 3.394531 -6.535156 3.113281 -6.273438 2.90625 -5.953125 C 2.695312 -5.640625 2.554688 -5.289062 2.484375 -4.90625 C 2.421875 -4.53125 2.425781 -4.15625 2.5 -3.78125 C 2.570312 -3.40625 2.71875 -3.054688 2.9375 -2.734375 C 3.15625 -2.421875 3.441406 -2.171875 3.796875 -1.984375 C 4.148438 -1.796875 4.566406 -1.703125 5.046875 -1.703125 C 5.128906 -1.703125 5.210938 -1.707031 5.296875 -1.71875 C 5.378906 -1.738281 5.457031 -1.75 5.53125 -1.75 L 5.53125 -4.390625 L 7.3125 -4.390625 Z M 7.3125 -0.546875 "/></g></g></g></svg>